<mxfile host="app.diagrams.net" modified="2022-01-21T09:20:49.557Z" agent="5.0 (Windows)" etag="qGVwIzkqCQs0PGVMsy8W" version="16.4.3" type="github">
  <diagram id="Arsce1lhnxzf3GvLfII_" name="第1頁">
    <mxGraphModel dx="1422" dy="1571" grid="1" gridSize="10" guides="1" tooltips="1" connect="1" arrows="1" fold="1" page="1" pageScale="1" pageWidth="1169" pageHeight="827" math="0" shadow="0">
      <root>
        <mxCell id="0" />
        <mxCell id="1" parent="0" />
        <mxCell id="sODQ3IuSzkhDvpB2BnHd-1" value="&lt;p&gt;請根據以下所給的資料，繪製出對應的「餐廳論壇」ERD，裡面會有 5 個實體：&lt;/p&gt;&lt;ul&gt;&lt;li&gt;餐廳 Restaurant&lt;/li&gt;&lt;li&gt;餐廳分類 Category&lt;/li&gt;&lt;li&gt;使用者 User&lt;/li&gt;&lt;li&gt;留言 Comment&lt;/li&gt;&lt;li&gt;我的最愛 Favorite&lt;/li&gt;&lt;/ul&gt;&lt;p&gt;以下是實體之間的關係：&lt;/p&gt;&lt;ul&gt;&lt;li&gt;&lt;font color=&quot;#FF6602&quot;&gt;OK.一個分類&lt;/font&gt;會有&lt;font color=&quot;#FF6602&quot;&gt;多家餐廳&lt;/font&gt;，但&lt;font color=&quot;#FF6602&quot;&gt;一個餐廳&lt;/font&gt;只會有&lt;font color=&quot;#FF6602&quot;&gt;一個分類&lt;/font&gt; &amp;gt; 1 cate &amp;gt; M rest&lt;/li&gt;&lt;/ul&gt;&lt;div&gt;&lt;br&gt;&lt;/div&gt;&lt;div&gt;&amp;gt;&amp;gt;&amp;gt; 一個分類，多家餐廳&lt;/div&gt;&lt;div&gt;&lt;br&gt;&lt;/div&gt;&lt;ul&gt;&lt;li&gt;&lt;font color=&quot;#FF6602&quot;&gt;OK.一個使用者&lt;/font&gt;可以把&lt;font color=&quot;#FF6602&quot;&gt;多家餐廳&lt;/font&gt;加入「&lt;font color=&quot;#FF6602&quot;&gt;我的最愛&lt;/font&gt;」名單 &lt;br&gt;&lt;/li&gt;&lt;/ul&gt;&lt;div&gt;&lt;br&gt;&lt;/div&gt;&lt;div&gt;&amp;gt;&amp;gt;&amp;gt; 一個我的最愛，多家餐廳&lt;/div&gt;&lt;div&gt;&lt;br&gt;&lt;/div&gt;&lt;ul&gt;&lt;li&gt;&lt;font color=&quot;#FF6602&quot;&gt;OK.一家餐廳&lt;/font&gt;同時可以在&lt;font color=&quot;#FF6602&quot;&gt;多個使用者&lt;/font&gt;的「&lt;font color=&quot;#FF6602&quot;&gt;我的最愛&lt;/font&gt;」名單裡 &amp;gt;&amp;nbsp;&lt;/li&gt;&lt;/ul&gt;&lt;div&gt;&lt;br&gt;&lt;/div&gt;&lt;div&gt;&amp;gt;&amp;gt;&amp;gt; 一家餐廳，多個我的最愛&lt;/div&gt;&lt;div&gt;&lt;br&gt;&lt;/div&gt;&lt;ul&gt;&lt;li&gt;&lt;font color=&quot;#FF6602&quot;&gt;OK.一個使用者&lt;/font&gt;只有&lt;font color=&quot;#FF6602&quot;&gt;一個「我的最愛」&lt;/font&gt;名單&lt;/li&gt;&lt;/ul&gt;&lt;div&gt;&lt;br&gt;&lt;/div&gt;&lt;div&gt;&amp;gt;&amp;gt;&amp;gt; 一個使用者，一個我的最愛&lt;/div&gt;&lt;div&gt;&lt;br&gt;&lt;/div&gt;&lt;ul&gt;&lt;li&gt;&lt;font color=&quot;#FF6602&quot;&gt;一個使用者&lt;/font&gt;可以在&lt;font color=&quot;#FF6602&quot;&gt;多家餐廳下留言&amp;nbsp;&lt;/font&gt;&lt;/li&gt;&lt;/ul&gt;&lt;div&gt;&lt;br&gt;&lt;/div&gt;&lt;div&gt;&lt;font color=&quot;#FF6602&quot;&gt;&lt;font color=&quot;#000000&quot;&gt;&amp;gt;&amp;gt;&amp;gt;&amp;nbsp; 一個使用者，多個留言；一家餐廳，多個留言&lt;/font&gt;&lt;br&gt;&lt;/font&gt;&lt;/div&gt;&lt;div&gt;&lt;font color=&quot;#FF6602&quot;&gt;&lt;br&gt;&lt;/font&gt;&lt;/div&gt;&lt;ul&gt;&lt;li&gt;&lt;font color=&quot;#FF6602&quot;&gt;一個留言&lt;/font&gt;只屬於&lt;font color=&quot;#FF6602&quot;&gt;一個使用者&lt;/font&gt;，也只關於&lt;font color=&quot;#FF6602&quot;&gt;一家餐廳 &lt;br&gt;&lt;/font&gt;&lt;/li&gt;&lt;/ul&gt;&lt;div&gt;&lt;br&gt;&lt;/div&gt;&lt;div&gt;&lt;font color=&quot;#FF6602&quot;&gt;&lt;font color=&quot;#000000&quot;&gt;&amp;gt;&amp;gt;&amp;gt; 一個留言，一個使用者； 一個留言，一間餐廳&lt;/font&gt;&lt;br&gt;&lt;/font&gt;&lt;/div&gt;&lt;div&gt;&lt;font color=&quot;#FF6602&quot;&gt;&lt;br&gt;&lt;/font&gt;&lt;/div&gt;" style="text;html=1;align=left;verticalAlign=middle;resizable=0;points=[];autosize=1;strokeColor=#d6b656;fillColor=#fff2cc;" parent="1" vertex="1">
          <mxGeometry x="1020" y="-455" width="440" height="630" as="geometry" />
        </mxCell>
        <mxCell id="ShWmm1AUHznijSMf3zA9-1" value="Category" style="rounded=1;whiteSpace=wrap;html=1;fillColor=#FF6602;strokeColor=#BD7000;fontColor=#FFFFFF;fontSize=20;" parent="1" vertex="1">
          <mxGeometry x="140" y="-220" width="120" height="60" as="geometry" />
        </mxCell>
        <mxCell id="ShWmm1AUHznijSMf3zA9-2" value="Restaurant" style="rounded=1;whiteSpace=wrap;html=1;fillColor=#FF6602;strokeColor=#BD7000;fontColor=#FFFFFF;fontSize=20;" parent="1" vertex="1">
          <mxGeometry x="410" y="-220" width="120" height="60" as="geometry" />
        </mxCell>
        <mxCell id="ShWmm1AUHznijSMf3zA9-3" value="User" style="rounded=1;whiteSpace=wrap;html=1;fillColor=#FF6602;strokeColor=#BD7000;fontColor=#FFFFFF;fontSize=20;" parent="1" vertex="1">
          <mxGeometry x="710" y="-40" width="120" height="60" as="geometry" />
        </mxCell>
        <mxCell id="ShWmm1AUHznijSMf3zA9-4" value="Comment" style="rounded=1;whiteSpace=wrap;html=1;fillColor=#FF6602;strokeColor=#BD7000;fontColor=#FFFFFF;fontSize=20;" parent="1" vertex="1">
          <mxGeometry x="710" y="-220" width="120" height="60" as="geometry" />
        </mxCell>
        <mxCell id="ShWmm1AUHznijSMf3zA9-5" value="Favorite" style="rounded=1;whiteSpace=wrap;html=1;fillColor=#FF6602;strokeColor=#BD7000;fontColor=#FFFFFF;fontSize=20;" parent="1" vertex="1">
          <mxGeometry x="410" y="-40" width="120" height="60" as="geometry" />
        </mxCell>
        <mxCell id="ShWmm1AUHznijSMf3zA9-6" style="edgeStyle=orthogonalEdgeStyle;rounded=0;orthogonalLoop=1;jettySize=auto;html=1;entryX=0;entryY=0.5;entryDx=0;entryDy=0;strokeWidth=3;endArrow=none;endFill=0;strokeColor=#FF6602;exitX=1;exitY=0.5;exitDx=0;exitDy=0;" parent="1" source="ShWmm1AUHznijSMf3zA9-1" target="ShWmm1AUHznijSMf3zA9-2" edge="1">
          <mxGeometry relative="1" as="geometry">
            <mxPoint x="460" y="-150" as="sourcePoint" />
            <mxPoint x="400" y="-56" as="targetPoint" />
          </mxGeometry>
        </mxCell>
        <mxCell id="ShWmm1AUHznijSMf3zA9-7" value="1" style="text;html=1;align=center;verticalAlign=middle;resizable=0;points=[];autosize=1;strokeColor=none;fillColor=none;" parent="1" vertex="1">
          <mxGeometry x="270" y="-210" width="20" height="20" as="geometry" />
        </mxCell>
        <mxCell id="ShWmm1AUHznijSMf3zA9-8" value="M" style="text;html=1;align=center;verticalAlign=middle;resizable=0;points=[];autosize=1;strokeColor=none;fillColor=none;" parent="1" vertex="1">
          <mxGeometry x="380" y="-210" width="20" height="20" as="geometry" />
        </mxCell>
        <mxCell id="ShWmm1AUHznijSMf3zA9-9" style="edgeStyle=orthogonalEdgeStyle;rounded=0;orthogonalLoop=1;jettySize=auto;html=1;strokeWidth=3;endArrow=none;endFill=0;strokeColor=#FF6602;exitX=1;exitY=0.5;exitDx=0;exitDy=0;entryX=0;entryY=0.5;entryDx=0;entryDy=0;" parent="1" source="ShWmm1AUHznijSMf3zA9-5" target="ShWmm1AUHznijSMf3zA9-3" edge="1">
          <mxGeometry relative="1" as="geometry">
            <mxPoint x="640" y="-80" as="sourcePoint" />
            <mxPoint x="680" y="-30" as="targetPoint" />
          </mxGeometry>
        </mxCell>
        <mxCell id="ShWmm1AUHznijSMf3zA9-10" value="1" style="text;html=1;align=center;verticalAlign=middle;resizable=0;points=[];autosize=1;strokeColor=none;fillColor=none;" parent="1" vertex="1">
          <mxGeometry x="680" y="-30" width="20" height="20" as="geometry" />
        </mxCell>
        <mxCell id="ShWmm1AUHznijSMf3zA9-11" value="1" style="text;html=1;align=center;verticalAlign=middle;resizable=0;points=[];autosize=1;strokeColor=none;fillColor=none;" parent="1" vertex="1">
          <mxGeometry x="545" y="-30" width="20" height="20" as="geometry" />
        </mxCell>
        <mxCell id="ShWmm1AUHznijSMf3zA9-12" style="edgeStyle=orthogonalEdgeStyle;rounded=0;orthogonalLoop=1;jettySize=auto;html=1;strokeWidth=3;endArrow=none;endFill=0;strokeColor=#FF6602;exitX=1;exitY=0.5;exitDx=0;exitDy=0;entryX=0;entryY=0.5;entryDx=0;entryDy=0;" parent="1" source="ShWmm1AUHznijSMf3zA9-23" target="ShWmm1AUHznijSMf3zA9-5" edge="1">
          <mxGeometry relative="1" as="geometry">
            <mxPoint x="510" as="sourcePoint" />
            <mxPoint x="725" as="targetPoint" />
          </mxGeometry>
        </mxCell>
        <mxCell id="ShWmm1AUHznijSMf3zA9-13" value="1" style="text;html=1;align=center;verticalAlign=middle;resizable=0;points=[];autosize=1;strokeColor=none;fillColor=none;" parent="1" vertex="1">
          <mxGeometry x="480" y="-150" width="20" height="20" as="geometry" />
        </mxCell>
        <mxCell id="ShWmm1AUHznijSMf3zA9-14" value="M" style="text;html=1;align=center;verticalAlign=middle;resizable=0;points=[];autosize=1;strokeColor=none;fillColor=none;" parent="1" vertex="1">
          <mxGeometry x="210" y="-60" width="20" height="20" as="geometry" />
        </mxCell>
        <mxCell id="ShWmm1AUHznijSMf3zA9-15" style="edgeStyle=orthogonalEdgeStyle;rounded=0;orthogonalLoop=1;jettySize=auto;html=1;strokeWidth=3;endArrow=none;endFill=0;strokeColor=#FF6602;exitX=1;exitY=0.5;exitDx=0;exitDy=0;entryX=0;entryY=0.5;entryDx=0;entryDy=0;" parent="1" source="ShWmm1AUHznijSMf3zA9-2" target="ShWmm1AUHznijSMf3zA9-4" edge="1">
          <mxGeometry relative="1" as="geometry">
            <mxPoint x="500" y="-110" as="sourcePoint" />
            <mxPoint x="660" y="-170" as="targetPoint" />
          </mxGeometry>
        </mxCell>
        <mxCell id="ShWmm1AUHznijSMf3zA9-16" style="edgeStyle=orthogonalEdgeStyle;rounded=0;orthogonalLoop=1;jettySize=auto;html=1;strokeWidth=3;endArrow=none;endFill=0;strokeColor=#FF6602;exitX=0.5;exitY=1;exitDx=0;exitDy=0;entryX=0.5;entryY=0;entryDx=0;entryDy=0;" parent="1" source="ShWmm1AUHznijSMf3zA9-4" target="ShWmm1AUHznijSMf3zA9-3" edge="1">
          <mxGeometry relative="1" as="geometry">
            <mxPoint x="540" y="-70" as="sourcePoint" />
            <mxPoint x="765" y="-70" as="targetPoint" />
          </mxGeometry>
        </mxCell>
        <mxCell id="ShWmm1AUHznijSMf3zA9-17" value="1" style="text;html=1;align=center;verticalAlign=middle;resizable=0;points=[];autosize=1;strokeColor=none;fillColor=none;" parent="1" vertex="1">
          <mxGeometry x="780" y="-70" width="20" height="20" as="geometry" />
        </mxCell>
        <mxCell id="ShWmm1AUHznijSMf3zA9-18" value="M" style="text;html=1;align=center;verticalAlign=middle;resizable=0;points=[];autosize=1;strokeColor=none;fillColor=none;" parent="1" vertex="1">
          <mxGeometry x="780" y="-150" width="20" height="20" as="geometry" />
        </mxCell>
        <mxCell id="ShWmm1AUHznijSMf3zA9-19" value="M" style="text;html=1;align=center;verticalAlign=middle;resizable=0;points=[];autosize=1;strokeColor=none;fillColor=none;" parent="1" vertex="1">
          <mxGeometry x="680" y="-210" width="20" height="20" as="geometry" />
        </mxCell>
        <mxCell id="ShWmm1AUHznijSMf3zA9-20" value="1" style="text;html=1;align=center;verticalAlign=middle;resizable=0;points=[];autosize=1;strokeColor=none;fillColor=none;" parent="1" vertex="1">
          <mxGeometry x="545" y="-210" width="20" height="20" as="geometry" />
        </mxCell>
        <mxCell id="ShWmm1AUHznijSMf3zA9-21" value="&lt;div&gt;1&lt;/div&gt;" style="text;html=1;align=center;verticalAlign=middle;resizable=0;points=[];autosize=1;strokeColor=none;fillColor=none;" parent="1" vertex="1">
          <mxGeometry x="380" y="-30" width="20" height="20" as="geometry" />
        </mxCell>
        <mxCell id="ShWmm1AUHznijSMf3zA9-22" value="M" style="text;html=1;align=center;verticalAlign=middle;resizable=0;points=[];autosize=1;strokeColor=none;fillColor=none;" parent="1" vertex="1">
          <mxGeometry x="310" y="-30" width="20" height="20" as="geometry" />
        </mxCell>
        <mxCell id="ShWmm1AUHznijSMf3zA9-23" value="FavoriteRestaurant" style="rounded=1;whiteSpace=wrap;html=1;fillColor=#FF6602;strokeColor=#BD7000;fontColor=#FFFFFF;fontSize=20;" parent="1" vertex="1">
          <mxGeometry x="105" y="-40" width="200" height="60" as="geometry" />
        </mxCell>
        <mxCell id="ShWmm1AUHznijSMf3zA9-24" style="edgeStyle=orthogonalEdgeStyle;rounded=0;orthogonalLoop=1;jettySize=auto;html=1;strokeWidth=3;endArrow=none;endFill=0;strokeColor=#FF6602;exitX=0.5;exitY=0;exitDx=0;exitDy=0;entryX=0.5;entryY=1;entryDx=0;entryDy=0;" parent="1" source="ShWmm1AUHznijSMf3zA9-23" target="ShWmm1AUHznijSMf3zA9-2" edge="1">
          <mxGeometry relative="1" as="geometry">
            <mxPoint x="315" as="sourcePoint" />
            <mxPoint x="375" as="targetPoint" />
          </mxGeometry>
        </mxCell>
        <mxCell id="ShWmm1AUHznijSMf3zA9-25" value="&lt;u&gt;id&lt;/u&gt;" style="ellipse;whiteSpace=wrap;html=1;fillColor=#FFE598;fontSize=16;" parent="1" vertex="1">
          <mxGeometry x="670" y="70" width="90" height="60" as="geometry" />
        </mxCell>
        <mxCell id="ShWmm1AUHznijSMf3zA9-27" style="edgeStyle=none;rounded=0;orthogonalLoop=1;jettySize=auto;html=1;fontSize=16;fontColor=#FFFFFF;endArrow=none;endFill=0;strokeColor=#FF6602;strokeWidth=3;entryX=0.5;entryY=0;entryDx=0;entryDy=0;" parent="1" source="ShWmm1AUHznijSMf3zA9-39" target="ShWmm1AUHznijSMf3zA9-4" edge="1">
          <mxGeometry relative="1" as="geometry">
            <mxPoint x="815.5122957486049" y="-413.0043686775053" as="sourcePoint" />
            <mxPoint x="770" y="-272.33" as="targetPoint" />
          </mxGeometry>
        </mxCell>
        <mxCell id="ShWmm1AUHznijSMf3zA9-29" value="password" style="ellipse;whiteSpace=wrap;html=1;fillColor=#FFE598;fontSize=16;" parent="1" vertex="1">
          <mxGeometry x="880" y="10" width="90" height="60" as="geometry" />
        </mxCell>
        <mxCell id="ShWmm1AUHznijSMf3zA9-30" value="name" style="ellipse;whiteSpace=wrap;html=1;fillColor=#FFE598;fontSize=16;" parent="1" vertex="1">
          <mxGeometry x="780" y="70" width="90" height="60" as="geometry" />
        </mxCell>
        <mxCell id="ShWmm1AUHznijSMf3zA9-31" value="email" style="ellipse;whiteSpace=wrap;html=1;fillColor=#FFE598;fontSize=16;" parent="1" vertex="1">
          <mxGeometry x="880" y="-90" width="90" height="60" as="geometry" />
        </mxCell>
        <mxCell id="ShWmm1AUHznijSMf3zA9-32" style="edgeStyle=none;rounded=0;orthogonalLoop=1;jettySize=auto;html=1;fontSize=16;fontColor=#FFFFFF;endArrow=none;endFill=0;strokeColor=#FF6602;strokeWidth=3;entryX=0.5;entryY=0;entryDx=0;entryDy=0;" parent="1" source="ShWmm1AUHznijSMf3zA9-40" target="ShWmm1AUHznijSMf3zA9-4" edge="1">
          <mxGeometry relative="1" as="geometry">
            <mxPoint x="670.5122957486049" y="-440.0043686775052" as="sourcePoint" />
            <mxPoint x="625" y="-299.3299999999999" as="targetPoint" />
          </mxGeometry>
        </mxCell>
        <mxCell id="ShWmm1AUHznijSMf3zA9-33" style="edgeStyle=none;rounded=0;orthogonalLoop=1;jettySize=auto;html=1;fontSize=16;fontColor=#FFFFFF;endArrow=none;endFill=0;strokeColor=#FF6602;strokeWidth=3;entryX=1;entryY=0.5;entryDx=0;entryDy=0;" parent="1" source="ShWmm1AUHznijSMf3zA9-31" target="ShWmm1AUHznijSMf3zA9-3" edge="1">
          <mxGeometry relative="1" as="geometry">
            <mxPoint x="860.0022957486049" y="-141.00436867750523" as="sourcePoint" />
            <mxPoint x="814.49" y="-0.32999999999992724" as="targetPoint" />
          </mxGeometry>
        </mxCell>
        <mxCell id="ShWmm1AUHznijSMf3zA9-35" style="edgeStyle=none;rounded=0;orthogonalLoop=1;jettySize=auto;html=1;fontSize=16;fontColor=#FFFFFF;endArrow=none;endFill=0;strokeColor=#FF6602;strokeWidth=3;" parent="1" target="ShWmm1AUHznijSMf3zA9-30" edge="1">
          <mxGeometry relative="1" as="geometry">
            <mxPoint x="770" y="20" as="sourcePoint" />
            <mxPoint x="734.49" y="170.3400000000001" as="targetPoint" />
          </mxGeometry>
        </mxCell>
        <mxCell id="ShWmm1AUHznijSMf3zA9-37" style="edgeStyle=none;rounded=0;orthogonalLoop=1;jettySize=auto;html=1;fontSize=16;fontColor=#FFFFFF;endArrow=none;endFill=0;strokeColor=#FF6602;strokeWidth=3;exitX=1;exitY=0.5;exitDx=0;exitDy=0;" parent="1" source="ShWmm1AUHznijSMf3zA9-3" target="ShWmm1AUHznijSMf3zA9-29" edge="1">
          <mxGeometry relative="1" as="geometry">
            <mxPoint x="800.0022957486049" y="29.66563132249479" as="sourcePoint" />
            <mxPoint x="754.49" y="170.3400000000001" as="targetPoint" />
          </mxGeometry>
        </mxCell>
        <mxCell id="ShWmm1AUHznijSMf3zA9-38" style="edgeStyle=none;rounded=0;orthogonalLoop=1;jettySize=auto;html=1;fontSize=16;fontColor=#FFFFFF;endArrow=none;endFill=0;strokeColor=#FF6602;strokeWidth=3;exitX=0.5;exitY=1;exitDx=0;exitDy=0;" parent="1" source="ShWmm1AUHznijSMf3zA9-3" target="ShWmm1AUHznijSMf3zA9-25" edge="1">
          <mxGeometry relative="1" as="geometry">
            <mxPoint x="710" y="50" as="sourcePoint" />
            <mxPoint x="634.49" y="190.67000000000007" as="targetPoint" />
          </mxGeometry>
        </mxCell>
        <mxCell id="ShWmm1AUHznijSMf3zA9-39" value="&lt;div&gt;content&lt;/div&gt;" style="ellipse;whiteSpace=wrap;html=1;fillColor=#FFE598;fontSize=16;" parent="1" vertex="1">
          <mxGeometry x="725" y="-350" width="90" height="60" as="geometry" />
        </mxCell>
        <mxCell id="ShWmm1AUHznijSMf3zA9-40" value="&lt;u&gt;id&lt;/u&gt;" style="ellipse;whiteSpace=wrap;html=1;fillColor=#FFE598;fontSize=16;" parent="1" vertex="1">
          <mxGeometry x="625" y="-350" width="90" height="60" as="geometry" />
        </mxCell>
        <mxCell id="ShWmm1AUHznijSMf3zA9-41" value="date" style="ellipse;whiteSpace=wrap;html=1;fillColor=#FFE598;fontSize=16;" parent="1" vertex="1">
          <mxGeometry x="830" y="-350" width="90" height="60" as="geometry" />
        </mxCell>
        <mxCell id="ShWmm1AUHznijSMf3zA9-42" style="edgeStyle=none;rounded=0;orthogonalLoop=1;jettySize=auto;html=1;fontSize=16;fontColor=#FFFFFF;endArrow=none;endFill=0;strokeColor=#FF6602;strokeWidth=3;" parent="1" source="ShWmm1AUHznijSMf3zA9-41" edge="1">
          <mxGeometry relative="1" as="geometry">
            <mxPoint x="841.0234028641275" y="-274.6130147973113" as="sourcePoint" />
            <mxPoint x="770" y="-220" as="targetPoint" />
          </mxGeometry>
        </mxCell>
        <mxCell id="ShWmm1AUHznijSMf3zA9-43" value="&lt;span&gt;id&lt;/span&gt;" style="ellipse;whiteSpace=wrap;html=1;fillColor=#FFE598;fontSize=16;fontStyle=4" parent="1" vertex="1">
          <mxGeometry x="370" y="-390" width="90" height="60" as="geometry" />
        </mxCell>
        <mxCell id="ShWmm1AUHznijSMf3zA9-44" value="name" style="ellipse;whiteSpace=wrap;html=1;fillColor=#FFE598;fontSize=16;" parent="1" vertex="1">
          <mxGeometry x="485" y="-390" width="90" height="60" as="geometry" />
        </mxCell>
        <mxCell id="ShWmm1AUHznijSMf3zA9-45" value="address" style="ellipse;whiteSpace=wrap;html=1;fillColor=#FFE598;fontSize=16;" parent="1" vertex="1">
          <mxGeometry x="505" y="-310" width="90" height="60" as="geometry" />
        </mxCell>
        <mxCell id="ShWmm1AUHznijSMf3zA9-46" value="rate" style="ellipse;whiteSpace=wrap;html=1;fillColor=#FFE598;fontSize=16;" parent="1" vertex="1">
          <mxGeometry x="340" y="-310" width="90" height="60" as="geometry" />
        </mxCell>
        <mxCell id="ShWmm1AUHznijSMf3zA9-47" style="edgeStyle=none;rounded=0;orthogonalLoop=1;jettySize=auto;html=1;fontSize=16;fontColor=#FFFFFF;endArrow=none;endFill=0;strokeColor=#FF6602;strokeWidth=3;entryX=0.5;entryY=0;entryDx=0;entryDy=0;" parent="1" source="ShWmm1AUHznijSMf3zA9-43" target="ShWmm1AUHznijSMf3zA9-2" edge="1">
          <mxGeometry relative="1" as="geometry">
            <mxPoint x="334.96150883013524" y="-349.99849116986474" as="sourcePoint" />
            <mxPoint x="410" y="-274.96" as="targetPoint" />
          </mxGeometry>
        </mxCell>
        <mxCell id="ShWmm1AUHznijSMf3zA9-48" style="edgeStyle=none;rounded=0;orthogonalLoop=1;jettySize=auto;html=1;fontSize=16;fontColor=#FFFFFF;endArrow=none;endFill=0;strokeColor=#FF6602;strokeWidth=3;entryX=0.5;entryY=0;entryDx=0;entryDy=0;" parent="1" source="ShWmm1AUHznijSMf3zA9-46" target="ShWmm1AUHznijSMf3zA9-2" edge="1">
          <mxGeometry relative="1" as="geometry">
            <mxPoint x="436.40117263268394" y="-320.9788332986227" as="sourcePoint" />
            <mxPoint x="480" y="-210" as="targetPoint" />
          </mxGeometry>
        </mxCell>
        <mxCell id="ShWmm1AUHznijSMf3zA9-49" style="edgeStyle=none;rounded=0;orthogonalLoop=1;jettySize=auto;html=1;fontSize=16;fontColor=#FFFFFF;endArrow=none;endFill=0;strokeColor=#FF6602;strokeWidth=3;entryX=0.5;entryY=0;entryDx=0;entryDy=0;" parent="1" source="ShWmm1AUHznijSMf3zA9-44" target="ShWmm1AUHznijSMf3zA9-2" edge="1">
          <mxGeometry relative="1" as="geometry">
            <mxPoint x="429.8963727473463" y="-247.57772043949035" as="sourcePoint" />
            <mxPoint x="480" y="-210" as="targetPoint" />
          </mxGeometry>
        </mxCell>
        <mxCell id="ShWmm1AUHznijSMf3zA9-50" style="edgeStyle=none;rounded=0;orthogonalLoop=1;jettySize=auto;html=1;fontSize=16;fontColor=#FFFFFF;endArrow=none;endFill=0;strokeColor=#FF6602;strokeWidth=3;entryX=0.5;entryY=0;entryDx=0;entryDy=0;" parent="1" source="ShWmm1AUHznijSMf3zA9-45" target="ShWmm1AUHznijSMf3zA9-2" edge="1">
          <mxGeometry relative="1" as="geometry">
            <mxPoint x="527.6375492446182" y="-321.1542815707753" as="sourcePoint" />
            <mxPoint x="480" y="-210" as="targetPoint" />
          </mxGeometry>
        </mxCell>
        <mxCell id="ShWmm1AUHznijSMf3zA9-51" value="&lt;u&gt;id&lt;/u&gt;" style="ellipse;whiteSpace=wrap;html=1;fillColor=#FFE598;fontSize=16;" parent="1" vertex="1">
          <mxGeometry x="50" y="-351" width="90" height="60" as="geometry" />
        </mxCell>
        <mxCell id="ShWmm1AUHznijSMf3zA9-52" value="name" style="ellipse;whiteSpace=wrap;html=1;fillColor=#FFE598;fontSize=16;" parent="1" vertex="1">
          <mxGeometry x="155" y="-350" width="90" height="60" as="geometry" />
        </mxCell>
        <mxCell id="ShWmm1AUHznijSMf3zA9-53" style="edgeStyle=none;rounded=0;orthogonalLoop=1;jettySize=auto;html=1;fontSize=16;fontColor=#FFFFFF;endArrow=none;endFill=0;strokeColor=#FF6602;strokeWidth=3;entryX=0.5;entryY=0;entryDx=0;entryDy=0;" parent="1" source="ShWmm1AUHznijSMf3zA9-52" target="ShWmm1AUHznijSMf3zA9-1" edge="1">
          <mxGeometry relative="1" as="geometry">
            <mxPoint x="246.40117263268394" y="-320.9788332986227" as="sourcePoint" />
            <mxPoint x="290" y="-210" as="targetPoint" />
          </mxGeometry>
        </mxCell>
        <mxCell id="ShWmm1AUHznijSMf3zA9-54" style="edgeStyle=none;rounded=0;orthogonalLoop=1;jettySize=auto;html=1;fontSize=16;fontColor=#FFFFFF;endArrow=none;endFill=0;strokeColor=#FF6602;strokeWidth=3;entryX=0.5;entryY=0;entryDx=0;entryDy=0;" parent="1" source="ShWmm1AUHznijSMf3zA9-51" target="ShWmm1AUHznijSMf3zA9-1" edge="1">
          <mxGeometry relative="1" as="geometry">
            <mxPoint x="237.60204557125894" y="-320.40818228503576" as="sourcePoint" />
            <mxPoint x="210" y="-210" as="targetPoint" />
          </mxGeometry>
        </mxCell>
        <mxCell id="ShWmm1AUHznijSMf3zA9-55" value="&lt;u&gt;id&lt;/u&gt;" style="ellipse;whiteSpace=wrap;html=1;fillColor=#FFE598;fontSize=16;" parent="1" vertex="1">
          <mxGeometry x="380" y="70" width="90" height="60" as="geometry" />
        </mxCell>
        <mxCell id="ShWmm1AUHznijSMf3zA9-56" value="&lt;u&gt;id&lt;/u&gt;" style="ellipse;whiteSpace=wrap;html=1;fillColor=#FFE598;fontSize=16;" parent="1" vertex="1">
          <mxGeometry x="105" y="70" width="90" height="60" as="geometry" />
        </mxCell>
        <mxCell id="ShWmm1AUHznijSMf3zA9-57" style="edgeStyle=none;rounded=0;orthogonalLoop=1;jettySize=auto;html=1;fontSize=16;fontColor=#FFFFFF;endArrow=none;endFill=0;strokeColor=#FF6602;strokeWidth=3;exitX=0.5;exitY=1;exitDx=0;exitDy=0;" parent="1" source="ShWmm1AUHznijSMf3zA9-23" target="ShWmm1AUHznijSMf3zA9-56" edge="1">
          <mxGeometry relative="1" as="geometry">
            <mxPoint x="280" y="80" as="sourcePoint" />
            <mxPoint x="194.02984593989686" y="202.8145058001469" as="targetPoint" />
          </mxGeometry>
        </mxCell>
        <mxCell id="ShWmm1AUHznijSMf3zA9-58" style="edgeStyle=none;rounded=0;orthogonalLoop=1;jettySize=auto;html=1;fontSize=16;fontColor=#FFFFFF;endArrow=none;endFill=0;strokeColor=#FF6602;strokeWidth=3;exitX=0.5;exitY=1;exitDx=0;exitDy=0;" parent="1" source="ShWmm1AUHznijSMf3zA9-5" target="ShWmm1AUHznijSMf3zA9-55" edge="1">
          <mxGeometry relative="1" as="geometry">
            <mxPoint x="215" y="30" as="sourcePoint" />
            <mxPoint x="215" y="80" as="targetPoint" />
          </mxGeometry>
        </mxCell>
        <mxCell id="ShWmm1AUHznijSMf3zA9-59" value="create-at" style="ellipse;whiteSpace=wrap;html=1;fillColor=#FFE598;fontSize=16;" parent="1" vertex="1">
          <mxGeometry x="480" y="70" width="90" height="60" as="geometry" />
        </mxCell>
        <mxCell id="ShWmm1AUHznijSMf3zA9-60" style="edgeStyle=none;rounded=0;orthogonalLoop=1;jettySize=auto;html=1;fontSize=16;fontColor=#FFFFFF;endArrow=none;endFill=0;strokeColor=#FF6602;strokeWidth=3;exitX=0.5;exitY=1;exitDx=0;exitDy=0;" parent="1" source="ShWmm1AUHznijSMf3zA9-5" target="ShWmm1AUHznijSMf3zA9-59" edge="1">
          <mxGeometry relative="1" as="geometry">
            <mxPoint x="225" y="40" as="sourcePoint" />
            <mxPoint x="225" y="90" as="targetPoint" />
          </mxGeometry>
        </mxCell>
        <mxCell id="ShWmm1AUHznijSMf3zA9-61" value="date" style="ellipse;whiteSpace=wrap;html=1;fillColor=#FFE598;fontSize=16;" parent="1" vertex="1">
          <mxGeometry x="215" y="70" width="90" height="60" as="geometry" />
        </mxCell>
        <mxCell id="ShWmm1AUHznijSMf3zA9-62" style="edgeStyle=none;rounded=0;orthogonalLoop=1;jettySize=auto;html=1;fontSize=16;fontColor=#FFFFFF;endArrow=none;endFill=0;strokeColor=#FF6602;strokeWidth=3;exitX=0.5;exitY=1;exitDx=0;exitDy=0;" parent="1" source="ShWmm1AUHznijSMf3zA9-23" target="ShWmm1AUHznijSMf3zA9-61" edge="1">
          <mxGeometry relative="1" as="geometry">
            <mxPoint x="215" y="30" as="sourcePoint" />
            <mxPoint x="178.74946197219583" y="82.72805531316953" as="targetPoint" />
          </mxGeometry>
        </mxCell>
        <mxCell id="ShWmm1AUHznijSMf3zA9-63" value="icon" style="ellipse;whiteSpace=wrap;html=1;fillColor=#FFE598;fontSize=16;" parent="1" vertex="1">
          <mxGeometry x="250" y="-350" width="90" height="60" as="geometry" />
        </mxCell>
        <mxCell id="ShWmm1AUHznijSMf3zA9-64" style="edgeStyle=none;rounded=0;orthogonalLoop=1;jettySize=auto;html=1;fontSize=16;fontColor=#FFFFFF;endArrow=none;endFill=0;strokeColor=#FF6602;strokeWidth=3;entryX=0.5;entryY=0;entryDx=0;entryDy=0;" parent="1" source="ShWmm1AUHznijSMf3zA9-63" target="ShWmm1AUHznijSMf3zA9-1" edge="1">
          <mxGeometry relative="1" as="geometry">
            <mxPoint x="210" y="-280" as="sourcePoint" />
            <mxPoint x="210" y="-210" as="targetPoint" />
          </mxGeometry>
        </mxCell>
      </root>
    </mxGraphModel>
  </diagram>
</mxfile>
